<svg width="67" height="67" viewBox="0 0 67 67" fill="none" xmlns="http://www.w3.org/2000/svg">
<path d="M56.5516 9.68048C53.5013 6.60044 49.8686 4.15827 45.865 2.49631C41.8615 0.834344 37.5672 -0.0141817 33.2324 0.000179286C15.0693 0.000179286 0.266126 14.8034 0.266126 32.9664C0.266126 38.7879 1.79634 44.4431 4.65719 49.4329L0 66.5315L17.4645 61.9408C22.288 64.5688 27.7103 65.9659 33.2324 65.9659C51.3954 65.9659 66.1986 51.1627 66.1986 32.9997C66.1986 24.1843 62.7723 15.9012 56.5516 9.68048ZM33.2324 60.3773C28.3091 60.3773 23.4855 59.0467 19.2608 56.5518L18.2628 55.953L7.88396 58.6808L10.645 48.568L9.97969 47.5368C7.24375 43.1692 5.7913 38.1202 5.78822 32.9664C5.78822 17.8638 18.0965 5.55554 33.1991 5.55554C40.5175 5.55554 47.4035 8.41639 52.5597 13.6058C55.1132 16.1469 57.1368 19.1696 58.513 22.4988C59.8892 25.828 60.5907 29.3973 60.5767 32.9997C60.6433 48.1023 48.335 60.3773 33.2324 60.3773ZM48.2684 39.8857C47.4368 39.4865 43.3784 37.4906 42.6466 37.1912C41.8814 36.925 41.3492 36.792 40.7837 37.5904C40.2182 38.422 38.6547 40.2849 38.189 40.8171C37.7232 41.3826 37.2243 41.4492 36.3926 41.0167C35.561 40.6175 32.8997 39.7194 29.7727 36.925C27.3111 34.7295 25.6811 32.035 25.1821 31.2034C24.7164 30.3717 25.1156 29.9393 25.548 29.5068C25.9139 29.1409 26.3797 28.5421 26.7788 28.0764C27.178 27.6107 27.3444 27.2447 27.6105 26.7125C27.8766 26.147 27.7435 25.6813 27.5439 25.2821C27.3444 24.8829 25.6811 20.8245 25.0158 19.1612C24.3504 17.5644 23.6519 17.764 23.1529 17.7308H21.5561C20.9906 17.7308 20.1257 17.9304 19.3606 18.762C18.6288 19.5936 16.4998 21.5896 16.4998 25.648C16.4998 29.7064 19.4604 33.6317 19.8596 34.164C20.2588 34.7295 25.6811 43.0459 33.931 46.6053C35.8936 47.4703 37.4238 47.9692 38.6214 48.3352C40.5841 48.9672 42.3804 48.8674 43.8108 48.6678C45.4076 48.435 48.7009 46.6719 49.3662 44.7425C50.0648 42.8131 50.0648 41.183 49.8319 40.8171C49.5991 40.4512 49.1001 40.2849 48.2684 39.8857Z" fill="white"></path>
</svg>